<mxfile host="app.diagrams.net" modified="2023-10-22T06:32:27.694Z" agent="Mozilla/5.0 (Windows NT 10.0; Win64; x64) AppleWebKit/537.36 (KHTML, like Gecko) Chrome/118.0.0.0 Safari/537.36" version="22.0.6" etag="sFn2b-zg-Q1R3MOiLuy5" type="github">
  <diagram name="PÃ¡gina-1" id="D2DRNSHM-oyW8fHo-_mk">
    <mxGraphModel>
      <root>
        <mxCell id="0" />
        <mxCell id="1" parent="0" />
      </root>
    </mxGraphModel>
  </diagram>
</mxfile>
